<?xml version="1.0" encoding="UTF-8"?><svg id="Calque_2" xmlns="http://www.w3.org/2000/svg" viewBox="0 0 1336.3 628.53"><defs><style>.cls-1{fill:#ff6c59;}.cls-2{fill:#2c2e68;}</style></defs><g id="Calque_1-2"><path class="cls-1" d="m223.35,304.31c-13.99,0-27.99-5.33-38.64-15.98-3.5-3.5-3.5-9.19,0-12.69,3.5-3.5,9.19-3.5,12.69,0,14.31,14.31,37.6,14.31,51.91,0,3.5-3.5,9.19-3.5,12.69,0,3.5,3.5,3.5,9.19,0,12.69-10.65,10.65-24.65,15.98-38.64,15.98Z"/><path class="cls-1" d="m314.24,434.93c-17.23,0-34.46-6.56-47.58-19.68-3.5-3.5-3.5-9.19,0-12.69,3.5-3.5,9.19-3.5,12.69,0,19.24,19.24,50.54,19.24,69.78,0,3.5-3.5,9.19-3.5,12.69,0,3.5,3.5,3.5,9.19,0,12.69-13.12,13.12-30.35,19.68-47.58,19.68Z"/><path class="cls-1" d="m405.13,304.35c-14.59,0-28.31-5.69-38.64-16.02-3.5-3.5-3.5-9.19,0-12.69,3.5-3.5,9.19-3.5,12.69,0,6.94,6.94,16.16,10.76,25.95,10.76s19.01-3.82,25.95-10.76c3.5-3.5,9.19-3.5,12.69,0s3.5,9.19,0,12.69c-10.33,10.33-24.05,16.02-38.64,16.02Z"/><path class="cls-1" d="m314.24,628.53c-23.09,0-46.18-8.79-63.76-26.37L26.32,378C9.35,361.03,0,338.38,0,314.24s9.35-46.79,26.32-63.76L250.48,26.32C267.45,9.35,290.1,0,314.24,0s46.79,9.35,63.76,26.32l112.91,112.91c6.31,6.31,6.31,16.53,0,22.84s-16.53,6.31-22.84,0l-112.91-112.91c-10.87-10.87-25.41-16.86-40.92-16.86s-30.05,5.99-40.92,16.86L49.16,273.32c-10.87,10.87-16.86,25.41-16.86,40.92s5.99,30.05,16.86,40.92l224.16,224.16c22.56,22.56,59.28,22.56,81.84,0l114.15-114.15c6.31-6.31,16.53-6.31,22.84,0,6.31,6.31,6.31,16.53,0,22.84l-114.15,114.15c-17.58,17.58-40.67,26.37-63.76,26.37Z"/><path class="cls-2" d="m553.8,399.17c-14.46-13.59-22.16-32.73-23.11-57.43-.19-5.17-.29-13.59-.29-25.27s.09-20.48.29-25.84c.96-24.5,8.76-43.6,23.4-57.28,14.64-13.68,34.98-20.53,61.02-20.53,17.04,0,31.87,2.92,44.51,8.76,12.63,5.84,22.4,13.78,29.29,23.83,6.89,10.05,10.53,21.39,10.91,34.03v.57c0,1.53-.62,2.83-1.87,3.88-1.25,1.05-2.63,1.58-4.16,1.58h-27.28c-2.3,0-4.02-.48-5.17-1.44-1.15-.96-2.11-2.77-2.87-5.46-3.06-12.06-8.14-20.53-15.22-25.41-7.08-4.88-16.56-7.32-28.43-7.32-27.57,0-41.92,15.41-43.07,46.23-.19,5.17-.29,13.11-.29,23.83s.09,18.86.29,24.41c1.15,30.82,15.51,46.23,43.07,46.23,11.87,0,21.39-2.49,28.57-7.47,7.18-4.98,12.2-13.4,15.07-25.27.57-2.68,1.48-4.5,2.73-5.46,1.24-.96,3.02-1.44,5.31-1.44h27.28c1.72,0,3.2.57,4.45,1.72,1.24,1.15,1.77,2.58,1.58,4.31-.39,12.63-4.02,23.98-10.91,34.03s-16.65,18-29.29,23.83c-12.63,5.84-27.47,8.76-44.51,8.76-26.42,0-46.85-6.79-61.3-20.39Z"/><path class="cls-2" d="m750.34,414.67c-1.34-1.34-2.01-2.97-2.01-4.88v-187.21c0-2.1.67-3.78,2.01-5.02,1.34-1.24,2.97-1.87,4.88-1.87h26.7c2.1,0,3.78.62,5.02,1.87,1.24,1.25,1.87,2.92,1.87,5.02v159.94h91.02c2.1,0,3.83.67,5.17,2.01,1.34,1.34,2.01,3.06,2.01,5.17v20.1c0,2.11-.67,3.78-2.01,5.02-1.34,1.25-3.06,1.87-5.17,1.87h-124.62c-1.92,0-3.54-.67-4.88-2.01Z"/><path class="cls-2" d="m931.23,414.67c-1.34-1.34-2.01-2.97-2.01-4.88v-186.93c0-2.1.62-3.83,1.87-5.17,1.24-1.34,2.92-2.01,5.02-2.01h126.34c2.1,0,3.83.67,5.17,2.01,1.34,1.34,2.01,3.06,2.01,5.17v18.95c0,2.11-.67,3.78-2.01,5.02-1.34,1.25-3.06,1.87-5.17,1.87h-94.47v50.82h88.15c2.1,0,3.83.62,5.17,1.87,1.34,1.25,2.01,2.92,2.01,5.02v17.8c0,2.11-.67,3.78-2.01,5.02-1.34,1.25-3.06,1.87-5.17,1.87h-88.15v52.55h96.77c2.1,0,3.83.67,5.17,2.01,1.34,1.34,2.01,3.06,2.01,5.17v18.95c0,2.11-.67,3.78-2.01,5.02-1.34,1.25-3.06,1.87-5.17,1.87h-128.64c-1.92,0-3.54-.67-4.88-2.01Zm47.38-217.94c0-1.53.48-2.77,1.44-3.73l23.26-28.43c1.91-2.1,3.54-3.49,4.88-4.16,1.34-.67,3.25-1,5.74-1h30.72c3.63,0,5.46,1.82,5.46,5.46,0,1.34-.48,2.49-1.44,3.45l-35.61,29.29c-1.72,1.34-3.3,2.3-4.74,2.87-1.44.57-3.21.86-5.31.86h-19.81c-3.06,0-4.59-1.53-4.59-4.59Z"/><path class="cls-2" d="m1105.67,414.96c-1.25-1.15-1.87-2.58-1.87-4.31l.57-2.58,69.2-185.2c1.34-4.78,4.69-7.18,10.05-7.18h31.3c4.98,0,8.33,2.4,10.05,7.18l69.2,185.2c.19.57.29,1.44.29,2.58,0,1.72-.57,3.16-1.72,4.31s-2.49,1.72-4.02,1.72h-24.98c-2.49,0-4.41-.57-5.74-1.72-1.34-1.15-2.2-2.39-2.58-3.73l-13.5-35.03h-85.28l-13.5,35.03c-1.53,3.64-4.31,5.46-8.33,5.46h-24.98c-1.53,0-2.92-.57-4.16-1.72Zm126.2-71.78l-32.73-88.73-32.45,88.73h65.18Z"/><path class="cls-2" d="m573.04,510.45v7h-32.97v-47.61h7.56v40.6h25.41Z"/><path class="cls-2" d="m611.6,503.17h-25.83c.7,4.97,3.85,8.75,10.01,8.75,3.22,0,5.67-.98,7-3.08h7.98c-2.1,5.95-7.91,9.45-15.05,9.45-10.36,0-17.36-7.49-17.36-17.29s6.93-17.29,16.94-17.29c10.92,0,17.71,8.33,16.31,19.46Zm-25.69-5.04h18.48c-.42-5.39-3.92-8.26-9.03-8.26-5.46,0-8.61,3.64-9.45,8.26Z"/><path class="cls-2" d="m676.22,499.39h7.77c-2.24,11.41-11.13,18.97-23.03,18.97-13.72,0-24.71-10.5-24.71-24.71s10.99-24.64,24.71-24.64c11.9,0,20.79,7.42,23.03,18.83h-7.77c-1.89-7.35-7.35-11.83-15.26-11.83-9.73,0-17.08,7.35-17.08,17.64s7.35,17.64,17.08,17.64c7.91,0,13.37-4.48,15.26-11.9Z"/><path class="cls-2" d="m724.65,484.55v32.9h-7.21v-2.59c-2.8,2.17-6.37,3.43-10.57,3.43-9.24,0-16.66-7.7-16.66-17.29s7.42-17.29,16.66-17.29c4.2,0,7.77,1.26,10.57,3.43v-2.59h7.21Zm-7.21,22.4v-11.9c-2.45-3.5-5.88-4.76-9.52-4.76-6.02,0-10.43,4.83-10.43,10.71s4.41,10.71,10.43,10.71c3.64,0,7.07-1.26,9.52-4.76Z"/><path class="cls-2" d="m754.19,483.85v6.86c-5.25.21-9.24,2.17-12.18,6.02v20.72h-7.28v-32.9h7.28v4.48c3.01-3.29,7.14-5.18,12.18-5.18Z"/><path class="cls-2" d="m793.46,499.11v18.34h-7.28v-17.92c0-6.02-3.22-9.24-8.54-9.24-3.15,0-6.58,1.75-9.17,4.97v22.19h-7.28v-32.9h7.28v2.94c2.87-2.45,6.44-3.78,10.64-3.78,8.54,0,14.35,5.88,14.35,15.4Z"/><path class="cls-2" d="m834.27,503.17h-25.83c.7,4.97,3.85,8.75,10.01,8.75,3.22,0,5.67-.98,7-3.08h7.98c-2.1,5.95-7.91,9.45-15.05,9.45-10.36,0-17.36-7.49-17.36-17.29s6.93-17.29,16.94-17.29c10.92,0,17.71,8.33,16.31,19.46Zm-25.69-5.04h18.48c-.42-5.39-3.92-8.26-9.03-8.26-5.46,0-8.61,3.64-9.45,8.26Z"/><path class="cls-2" d="m866.26,516.96c-2.87,1.05-5.25,1.33-7.49,1.33-8.4,0-12.88-5.04-12.88-13.51v-14.14h-7.77v-6.09h7.77v-12.11h7.28v12.11h12.18v6.09h-12.18v14.14c0,4.76,2.38,6.79,6.44,6.79,1.96,0,3.92-.56,5.6-1.26l1.05,6.65Z"/><path class="cls-2" d="m925.13,467.75v49.71h-7.21v-2.66c-2.8,2.24-6.37,3.5-10.57,3.5-9.24,0-16.66-7.7-16.66-17.36s7.42-17.22,16.66-17.22c4.2,0,7.77,1.26,10.57,3.43v-19.39h7.21Zm-7.21,39.13v-11.83c-2.45-3.5-5.88-4.76-9.52-4.76-6.02,0-10.43,4.83-10.43,10.64s4.41,10.78,10.43,10.78c3.64,0,7.07-1.26,9.52-4.83Z"/><path class="cls-2" d="m936.05,475.66c-1.89-.7-2.8-2.03-2.8-3.71,0-2.45,2.03-4.34,4.48-4.34s4.55,1.89,4.55,4.34c0,1.05-.07,1.54-1.47,4.2l-3.78,7.56h-4.41l3.43-8.05Z"/><path class="cls-2" d="m957.96,469.85v47.61h-7.56v-47.61h7.56Z"/><path class="cls-2" d="m1000.94,499.11v18.34h-7.28v-17.92c0-6.02-3.22-9.24-8.54-9.24-3.15,0-6.58,1.75-9.17,4.97v22.19h-7.28v-32.9h7.28v2.94c2.87-2.45,6.44-3.78,10.64-3.78,8.54,0,14.35,5.88,14.35,15.4Z"/><path class="cls-2" d="m1021.94,484.55h13.02v6.09h-13.02v26.81h-7.21v-26.81h-9.31v-6.09h9.31v-4.41c0-8.19,5.67-13.23,13.44-13.23,2.17,0,4.34.35,6.93,1.05l-1.05,6.16c-1.75-.56-3.71-.91-5.04-.91-4.27,0-7.07,2.66-7.07,6.93v4.41Z"/><path class="cls-2" d="m1072.48,501c0,10.08-7.28,17.29-17.5,17.29s-17.5-7.21-17.5-17.29,7.28-17.29,17.5-17.29,17.5,7.21,17.5,17.29Zm-7.28,0c0-6.23-4.27-10.71-10.22-10.71s-10.22,4.48-10.22,10.71,4.27,10.71,10.22,10.71,10.22-4.55,10.22-10.71Z"/><path class="cls-2" d="m1099.71,483.85v6.86c-5.25.21-9.24,2.17-12.18,6.02v20.72h-7.28v-32.9h7.28v4.48c3.01-3.29,7.14-5.18,12.18-5.18Z"/><path class="cls-2" d="m1160.89,498.62v18.83h-7.21v-18.83c0-5.81-3.08-8.33-7.77-8.33-3.22,0-6.3,1.19-8.75,4.48.21,1.05.28,2.24.28,3.43v19.25h-7.21v-19.25c0-5.81-3.08-7.91-7.35-7.91-3.43,0-6.51,1.4-8.89,4.69v22.47h-7.28v-32.9h7.28v2.8c2.45-2.24,5.39-3.64,9.73-3.64,4.69,0,8.47,1.61,10.92,4.76,3.22-3.15,6.93-4.76,11.76-4.76,8.61,0,14.49,5.18,14.49,14.91Z"/><path class="cls-2" d="m1202.96,484.55v32.9h-7.21v-2.59c-2.8,2.17-6.37,3.43-10.57,3.43-9.24,0-16.66-7.7-16.66-17.29s7.42-17.29,16.66-17.29c4.2,0,7.77,1.26,10.57,3.43v-2.59h7.21Zm-7.21,22.4v-11.9c-2.45-3.5-5.88-4.76-9.52-4.76-6.02,0-10.43,4.83-10.43,10.71s4.41,10.71,10.43,10.71c3.64,0,7.07-1.26,9.52-4.76Z"/><path class="cls-2" d="m1236.48,516.96c-2.87,1.05-5.25,1.33-7.49,1.33-8.4,0-12.88-5.04-12.88-13.51v-14.14h-7.77v-6.09h7.77v-12.11h7.28v12.11h12.18v6.09h-12.18v14.14c0,4.76,2.38,6.79,6.44,6.79,1.96,0,3.92-.56,5.6-1.26l1.05,6.65Z"/><path class="cls-2" d="m1243.97,472.44c0-2.59,2.03-4.48,4.62-4.48s4.62,1.89,4.62,4.48-2.1,4.48-4.62,4.48-4.62-1.89-4.62-4.48Zm8.26,12.11v32.9h-7.21v-32.9h7.21Z"/><path class="cls-2" d="m1296.26,501c0,10.08-7.28,17.29-17.5,17.29s-17.5-7.21-17.5-17.29,7.28-17.29,17.5-17.29,17.5,7.21,17.5,17.29Zm-7.28,0c0-6.23-4.27-10.71-10.22-10.71s-10.22,4.48-10.22,10.71,4.27,10.71,10.22,10.71,10.22-4.55,10.22-10.71Z"/><path class="cls-2" d="m1336.3,499.11v18.34h-7.28v-17.92c0-6.02-3.22-9.24-8.54-9.24-3.15,0-6.58,1.75-9.17,4.97v22.19h-7.28v-32.9h7.28v2.94c2.87-2.45,6.44-3.78,10.64-3.78,8.54,0,14.35,5.88,14.35,15.4Z"/><path class="cls-2" d="m572.27,547.75v49.71h-7.21v-2.66c-2.8,2.24-6.37,3.5-10.57,3.5-9.24,0-16.66-7.7-16.66-17.36s7.42-17.22,16.66-17.22c4.2,0,7.77,1.26,10.57,3.43v-19.39h7.21Zm-7.21,39.13v-11.83c-2.45-3.5-5.88-4.76-9.52-4.76-6.02,0-10.43,4.83-10.43,10.64s4.41,10.78,10.43,10.78c3.64,0,7.07-1.26,9.52-4.83Z"/><path class="cls-2" d="m613.7,564.55v32.9h-7.21v-3.22c-2.87,2.59-6.44,4.06-10.71,4.06-8.54,0-14.28-6.09-14.28-15.54v-18.2h7.21v17.78c0,6.02,3.29,9.38,8.54,9.38,3.22,0,6.58-1.82,9.24-5.18v-21.98h7.21Z"/><path class="cls-2" d="m675.93,590.45v7h-32.97v-47.61h7.56v40.6h25.41Z"/><path class="cls-2" d="m716.25,581c0,10.08-7.28,17.29-17.5,17.29s-17.5-7.21-17.5-17.29,7.28-17.29,17.5-17.29,17.5,7.21,17.5,17.29Zm-7.28,0c0-6.23-4.27-10.71-10.22-10.71s-10.22,4.48-10.22,10.71,4.27,10.71,10.22,10.71,10.22-4.55,10.22-10.71Z"/><path class="cls-2" d="m756.92,564.55v33.81c0,10.01-6.79,16.03-16.66,16.03-9.24,0-16.03-5.46-16.94-13.3h7.42c.63,3.99,4.13,6.72,9.52,6.72s9.45-3.43,9.45-9.45v-5.18c-2.8,2.17-6.51,3.43-10.71,3.43-9.24,0-16.52-7.42-16.52-16.24,0-9.8,7.28-16.66,16.52-16.66,4.2,0,7.91,1.26,10.71,3.43v-2.59h7.21Zm-7.21,20.72v-10.22c-2.45-3.64-6.02-5.11-9.66-5.11-6.09,0-10.29,4.34-10.29,10.43,0,5.04,4.2,9.94,10.29,9.94,3.64,0,7.21-1.4,9.66-5.04Z"/><path class="cls-2" d="m798.01,583.17h-25.83c.7,4.97,3.85,8.75,10.01,8.75,3.22,0,5.67-.98,7-3.08h7.98c-2.1,5.95-7.91,9.45-15.05,9.45-10.36,0-17.36-7.49-17.36-17.29s6.93-17.29,16.94-17.29c10.92,0,17.71,8.33,16.31,19.46Zm-25.69-5.04h18.48c-.42-5.39-3.92-8.26-9.03-8.26-5.46,0-8.61,3.64-9.45,8.26Z"/><path class="cls-2" d="m860.11,578.62v18.83h-7.21v-18.83c0-5.81-3.08-8.33-7.77-8.33-3.22,0-6.3,1.19-8.75,4.48.21,1.05.28,2.24.28,3.43v19.25h-7.21v-19.25c0-5.81-3.08-7.91-7.35-7.91-3.43,0-6.51,1.4-8.89,4.69v22.47h-7.28v-32.9h7.28v2.8c2.45-2.24,5.39-3.64,9.73-3.64,4.69,0,8.47,1.61,10.92,4.76,3.22-3.15,6.93-4.76,11.76-4.76,8.61,0,14.49,5.18,14.49,14.91Z"/><path class="cls-2" d="m900.98,583.17h-25.83c.7,4.97,3.85,8.75,10.01,8.75,3.22,0,5.67-.98,7-3.08h7.98c-2.1,5.95-7.91,9.45-15.05,9.45-10.36,0-17.36-7.49-17.36-17.29s6.93-17.29,16.94-17.29c10.92,0,17.71,8.33,16.31,19.46Zm-25.69-5.04h18.48c-.42-5.39-3.92-8.26-9.03-8.26-5.46,0-8.61,3.64-9.45,8.26Z"/><path class="cls-2" d="m941.16,579.11v18.34h-7.28v-17.92c0-6.02-3.22-9.24-8.54-9.24-3.15,0-6.58,1.75-9.17,4.97v22.19h-7.28v-32.9h7.28v2.94c2.87-2.45,6.44-3.78,10.64-3.78,8.54,0,14.35,5.88,14.35,15.4Z"/><path class="cls-2" d="m973.5,596.96c-2.87,1.05-5.25,1.33-7.49,1.33-8.4,0-12.88-5.04-12.88-13.51v-14.14h-7.77v-6.09h7.77v-12.11h7.28v12.11h12.18v6.09h-12.18v14.14c0,4.76,2.38,6.79,6.44,6.79,1.96,0,3.92-.56,5.6-1.26l1.05,6.65Z"/></g></svg>